<?xml version="1.0" encoding="UTF-8" standalone="no"?>
<!DOCTYPE svg PUBLIC "-//W3C//DTD SVG 1.1//EN" "http://www.w3.org/Graphics/SVG/1.1/DTD/svg11.dtd">
<!-- Created with Vectornator (http://vectornator.io/) -->
<svg height="100%" stroke-miterlimit="10" style="fill-rule:nonzero;clip-rule:evenodd;stroke-linecap:round;stroke-linejoin:round;" version="1.1" viewBox="0 0 1500 500" width="100%" xml:space="preserve" xmlns="http://www.w3.org/2000/svg" xmlns:xlink="http://www.w3.org/1999/xlink">
<defs>
<filter color-interpolation-filters="sRGB" filterUnits="userSpaceOnUse" height="244.009" id="Filter" width="814.109" x="487.24" y="95.9248">
<feDropShadow dx="-0" dy="0" flood-color="#000000" flood-opacity="0.2" in="SourceGraphic" result="Shadow" stdDeviation="24.5"/>
</filter>
<filter color-interpolation-filters="sRGB" filterUnits="userSpaceOnUse" height="142.07" id="Filter_2" width="194.219" x="1259.62" y="141.218">
<feDropShadow dx="-0" dy="0" flood-color="#ffffff" flood-opacity="0.5" in="SourceGraphic" result="Shadow" stdDeviation="6.5"/>
</filter>
</defs>
<g id="レイヤー-1">
<g fill="#ffffff" fill-opacity="0.8" opacity="1" stroke="none">
<path d="M599.475 347.5L616.257 347.5C617.71 347.5 618.694 346.609 618.694 345.227C618.694 343.844 617.71 342.953 616.257 342.953L602.1 342.953L602.1 332.453L615.483 332.453C616.889 332.453 617.827 331.586 617.827 330.273C617.827 328.938 616.866 328.094 615.483 328.094L602.1 328.094L602.1 318.227L616.257 318.227C617.71 318.227 618.694 317.336 618.694 315.953C618.694 314.57 617.71 313.68 616.257 313.68L599.475 313.68C597.835 313.68 596.85 314.711 596.85 316.398L596.85 344.781C596.85 346.469 597.835 347.5 599.475 347.5Z"/>
<path d="M631.272 347.922C634.483 347.922 637.624 346.188 639.053 343.445L639.171 343.445L639.171 345.531C639.217 347.031 640.178 347.945 641.585 347.945C643.014 347.945 644.022 346.984 644.022 345.391L644.022 330.508C644.022 325.562 640.202 322.398 634.225 322.398C629.796 322.398 626.069 324.18 624.78 326.969C624.475 327.531 624.335 328.094 624.335 328.609C624.335 329.875 625.249 330.719 626.514 330.719C627.405 330.719 628.061 330.391 628.577 329.641C629.983 327.391 631.6 326.523 634.038 326.523C637.132 326.523 638.983 328.164 638.983 330.906L638.983 332.805L632.21 333.203C626.374 333.531 623.046 336.18 623.046 340.492C623.046 344.922 626.444 347.922 631.272 347.922ZM632.655 343.914C629.96 343.914 628.155 342.508 628.155 340.352C628.155 338.242 629.866 336.906 632.889 336.695L638.983 336.32L638.983 338.266C638.983 341.477 636.194 343.914 632.655 343.914Z"/>
<path d="M652.452 347.945C653.952 347.945 654.983 346.914 654.983 345.273L654.983 332.688C654.983 329.617 656.389 327.297 659.858 327.273C660.913 327.273 661.663 327.062 662.178 326.617C662.671 326.219 662.928 325.633 662.928 324.836C662.928 324.039 662.717 323.43 662.249 323.055C661.827 322.656 661.147 322.445 660.257 322.445C657.796 322.445 655.522 324.297 654.842 327.062L654.725 327.062L654.725 324.953C654.725 323.406 653.741 322.398 652.335 322.398C650.905 322.398 649.921 323.406 649.921 324.953L649.921 345.273C649.921 346.914 650.928 347.945 652.452 347.945Z"/>
<path d="M668.147 341.594C668.147 345.672 670.257 347.711 674.405 347.711L674.663 347.711C677.147 347.711 678.319 346.938 678.319 345.414C678.319 344.219 677.592 343.633 676.139 343.492L675.741 343.469C673.913 343.328 673.233 342.438 673.233 340.469L673.233 326.852L676.116 326.852C677.428 326.852 678.225 326.102 678.225 324.859C678.225 323.617 677.428 322.844 676.116 322.844L673.233 322.844L673.233 319.188C673.233 317.57 672.225 316.492 670.702 316.492C669.155 316.492 668.147 317.57 668.147 319.188L668.147 322.844L666.366 322.844C665.053 322.844 664.257 323.594 664.257 324.859C664.257 326.102 665.053 326.852 666.366 326.852L668.147 326.852L668.147 341.594Z"/>
<path d="M685.788 347.945C687.264 347.945 688.319 346.938 688.319 345.273L688.319 333.25C688.319 329.359 690.616 326.781 694.366 326.781C697.928 326.781 699.757 328.961 699.757 332.594L699.757 345.273C699.757 346.938 700.811 347.945 702.288 347.945C703.788 347.945 704.842 346.938 704.842 345.273L704.842 331.609C704.842 326.031 701.608 322.422 696.194 322.422C692.444 322.422 689.749 324.086 688.389 326.969L688.272 326.969L688.272 315.859C688.272 314.266 687.335 313.234 685.764 313.234C684.217 313.234 683.257 314.266 683.257 315.859L683.257 345.273C683.257 346.938 684.311 347.945 685.788 347.945Z"/>
<path d="M719.858 347.922C723.374 347.922 726.257 346.117 727.663 343.352L727.757 343.352L727.757 353.547C727.757 355.211 728.811 356.242 730.311 356.242C731.788 356.242 732.842 355.211 732.842 353.547L732.842 325C732.842 323.453 731.905 322.398 730.382 322.398C728.858 322.398 727.921 323.43 727.921 325L727.921 327.086L727.803 327.086C726.35 324.25 723.538 322.445 719.975 322.445C713.671 322.445 709.616 327.391 709.616 335.172C709.616 342.953 713.671 347.922 719.858 347.922ZM721.217 343.633C717.257 343.633 714.796 340.398 714.796 335.172C714.796 329.945 717.257 326.711 721.217 326.711C725.108 326.711 727.78 330.062 727.78 335.172C727.78 340.305 725.108 343.633 721.217 343.633Z"/>
<path d="M747.366 347.945C751.139 347.945 753.647 346.281 755.007 343.328L755.124 343.328L755.124 345.391C755.124 346.938 756.108 347.945 757.561 347.945C759.014 347.945 759.975 346.938 759.975 345.367L759.975 325.094C759.975 323.406 758.944 322.398 757.444 322.398C755.967 322.398 754.913 323.406 754.913 325.094L754.913 337.211C754.913 341.055 752.71 343.586 749.053 343.586C745.561 343.586 743.78 341.57 743.78 337.82L743.78 325.094C743.78 323.406 742.725 322.398 741.249 322.398C739.749 322.398 738.717 323.406 738.717 325.094L738.717 338.805C738.717 344.453 741.999 347.945 747.366 347.945Z"/>
<path d="M773.186 347.922C776.397 347.922 779.538 346.188 780.967 343.445L781.085 343.445L781.085 345.531C781.132 347.031 782.092 347.945 783.499 347.945C784.928 347.945 785.936 346.984 785.936 345.391L785.936 330.508C785.936 325.562 782.116 322.398 776.139 322.398C771.71 322.398 767.983 324.18 766.694 326.969C766.389 327.531 766.249 328.094 766.249 328.609C766.249 329.875 767.163 330.719 768.428 330.719C769.319 330.719 769.975 330.391 770.491 329.641C771.897 327.391 773.514 326.523 775.952 326.523C779.046 326.523 780.897 328.164 780.897 330.906L780.897 332.805L774.124 333.203C768.288 333.531 764.96 336.18 764.96 340.492C764.96 344.922 768.358 347.922 773.186 347.922ZM774.569 343.914C771.874 343.914 770.069 342.508 770.069 340.352C770.069 338.242 771.78 336.906 774.803 336.695L780.897 336.32L780.897 338.266C780.897 341.477 778.108 343.914 774.569 343.914Z"/>
<path d="M794.553 347.945C796.03 347.945 797.085 346.938 797.085 345.273L797.085 338.688L799.335 336.578L807.514 346.703C808.194 347.641 808.757 347.945 809.694 347.945C811.053 347.945 812.061 347.008 812.061 345.719C812.061 345.086 811.921 344.617 811.382 343.938L803.014 333.578L810.632 326.359C811.288 325.75 811.499 325.281 811.499 324.555C811.499 323.359 810.538 322.398 809.296 322.398C808.546 322.398 808.007 322.656 807.374 323.336L797.132 333.367L797.085 333.367L797.085 315.906C797.085 314.242 796.03 313.234 794.553 313.234C793.077 313.234 792.022 314.242 792.022 315.906L792.022 345.273C792.022 346.938 793.077 347.945 794.553 347.945Z"/>
<path d="M826.561 347.969C831.155 347.969 834.741 346.117 836.358 342.883C836.569 342.391 836.71 341.922 836.71 341.523C836.71 340.258 835.819 339.461 834.6 339.461C833.874 339.461 833.358 339.719 832.819 340.352C830.944 342.906 829.21 343.867 826.444 343.867C822.413 343.867 819.882 341.055 819.882 336.555L819.882 336.438L834.788 336.438C836.358 336.438 837.296 335.5 837.296 333.859C837.296 327.133 832.772 322.398 826.21 322.398C819.225 322.398 814.772 327.461 814.772 335.289C814.772 343.258 819.132 347.969 826.561 347.969ZM819.905 332.898C820.163 329.055 822.694 326.477 826.186 326.477C829.702 326.477 832.116 329.031 832.233 332.898L819.905 332.898Z"/>
<path d="M856.171 347.5L872.952 347.5C874.405 347.5 875.389 346.609 875.389 345.227C875.389 343.844 874.405 342.953 872.952 342.953L858.796 342.953L858.796 332.453L872.178 332.453C873.585 332.453 874.522 331.586 874.522 330.273C874.522 328.938 873.561 328.094 872.178 328.094L858.796 328.094L858.796 318.227L872.952 318.227C874.405 318.227 875.389 317.336 875.389 315.953C875.389 314.57 874.405 313.68 872.952 313.68L856.171 313.68C854.53 313.68 853.546 314.711 853.546 316.398L853.546 344.781C853.546 346.469 854.53 347.5 856.171 347.5Z"/>
<path d="M887.967 347.922C891.178 347.922 894.319 346.188 895.749 343.445L895.866 343.445L895.866 345.531C895.913 347.031 896.874 347.945 898.28 347.945C899.71 347.945 900.717 346.984 900.717 345.391L900.717 330.508C900.717 325.562 896.897 322.398 890.921 322.398C886.491 322.398 882.764 324.18 881.475 326.969C881.171 327.531 881.03 328.094 881.03 328.609C881.03 329.875 881.944 330.719 883.21 330.719C884.1 330.719 884.757 330.391 885.272 329.641C886.678 327.391 888.296 326.523 890.733 326.523C893.827 326.523 895.678 328.164 895.678 330.906L895.678 332.805L888.905 333.203C883.069 333.531 879.741 336.18 879.741 340.492C879.741 344.922 883.139 347.922 887.967 347.922ZM889.35 343.914C886.655 343.914 884.85 342.508 884.85 340.352C884.85 338.242 886.561 336.906 889.585 336.695L895.678 336.32L895.678 338.266C895.678 341.477 892.889 343.914 889.35 343.914Z"/>
<path d="M909.147 347.945C910.647 347.945 911.678 346.914 911.678 345.273L911.678 332.688C911.678 329.617 913.085 327.297 916.553 327.273C917.608 327.273 918.358 327.062 918.874 326.617C919.366 326.219 919.624 325.633 919.624 324.836C919.624 324.039 919.413 323.43 918.944 323.055C918.522 322.656 917.842 322.445 916.952 322.445C914.491 322.445 912.217 324.297 911.538 327.062L911.421 327.062L911.421 324.953C911.421 323.406 910.436 322.398 909.03 322.398C907.6 322.398 906.616 323.406 906.616 324.953L906.616 345.273C906.616 346.914 907.624 347.945 909.147 347.945Z"/>
<path d="M926.085 347.945C927.561 347.945 928.616 346.938 928.616 345.273L928.616 315.906C928.616 314.242 927.561 313.234 926.085 313.234C924.608 313.234 923.553 314.242 923.553 315.906L923.553 345.273C923.553 346.938 924.608 347.945 926.085 347.945Z"/>
<path d="M937.866 356.688C942.436 356.688 944.757 354.672 946.936 348.742L955.491 326.125C955.655 325.633 955.749 325.117 955.749 324.719C955.749 323.359 954.741 322.398 953.288 322.398C951.999 322.398 951.296 322.961 950.874 324.344L944.569 342.906L944.499 342.906L938.217 324.344C937.772 322.938 937.046 322.398 935.78 322.398C934.303 322.398 933.202 323.359 933.202 324.742C933.202 325.141 933.296 325.656 933.483 326.172L941.733 347.758L941.264 349.188C940.35 351.719 938.921 352.492 937.514 352.492C936.928 352.492 936.741 352.469 936.202 352.469C934.983 352.469 934.233 353.172 934.233 354.25C934.233 355.82 935.522 356.688 937.866 356.688Z"/>
<path d="M980.952 347.875C982.592 347.875 983.507 347.102 984.022 345.297L990.749 322L990.983 322L997.733 345.297C998.249 347.125 999.139 347.875 1000.8 347.875C1002.4 347.875 1003.29 347.078 1003.8 345.297L1011.63 317.266C1011.82 316.633 1011.89 316.141 1011.89 315.672C1011.89 314.242 1010.86 313.305 1009.31 313.305C1007.95 313.305 1007.08 314.031 1006.73 315.484L1000.66 340.164L1000.48 340.164L993.842 315.883C993.374 314.102 992.46 313.305 990.889 313.305C989.272 313.305 988.382 314.078 987.889 315.953L981.28 340.164L981.092 340.164L974.999 315.484C974.671 314.055 973.827 313.305 972.444 313.305C970.897 313.305 969.866 314.242 969.866 315.672C969.866 316.141 969.936 316.633 970.1 317.266L977.952 345.273C978.444 347.078 979.335 347.875 980.952 347.875Z"/>
<path d="M1020.9 347.922C1024.12 347.922 1027.26 346.188 1028.69 343.445L1028.8 343.445L1028.8 345.531C1028.85 347.031 1029.81 347.945 1031.22 347.945C1032.65 347.945 1033.65 346.984 1033.65 345.391L1033.65 330.508C1033.65 325.562 1029.83 322.398 1023.86 322.398C1019.43 322.398 1015.7 324.18 1014.41 326.969C1014.11 327.531 1013.97 328.094 1013.97 328.609C1013.97 329.875 1014.88 330.719 1016.15 330.719C1017.04 330.719 1017.69 330.391 1018.21 329.641C1019.62 327.391 1021.23 326.523 1023.67 326.523C1026.76 326.523 1028.62 328.164 1028.62 330.906L1028.62 332.805L1021.84 333.203C1016.01 333.531 1012.68 336.18 1012.68 340.492C1012.68 344.922 1016.08 347.922 1020.9 347.922ZM1022.29 343.914C1019.59 343.914 1017.79 342.508 1017.79 340.352C1017.79 338.242 1019.5 336.906 1022.52 336.695L1028.62 336.32L1028.62 338.266C1028.62 341.477 1025.83 343.914 1022.29 343.914Z"/>
<path d="M1042.08 347.945C1043.58 347.945 1044.62 346.914 1044.62 345.273L1044.62 332.688C1044.62 329.617 1046.02 327.297 1049.49 327.273C1050.55 327.273 1051.3 327.062 1051.81 326.617C1052.3 326.219 1052.56 325.633 1052.56 324.836C1052.56 324.039 1052.35 323.43 1051.88 323.055C1051.46 322.656 1050.78 322.445 1049.89 322.445C1047.43 322.445 1045.15 324.297 1044.48 327.062L1044.36 327.062L1044.36 324.953C1044.36 323.406 1043.37 322.398 1041.97 322.398C1040.54 322.398 1039.55 323.406 1039.55 324.953L1039.55 345.273C1039.55 346.914 1040.56 347.945 1042.08 347.945Z"/>
<path d="M1058.83 347.945C1060.31 347.945 1061.37 346.938 1061.37 345.273L1061.37 333.133C1061.37 329.312 1063.66 326.781 1067.23 326.781C1070.74 326.781 1072.48 328.82 1072.48 332.523L1072.48 345.273C1072.48 346.938 1073.53 347.945 1075.01 347.945C1076.51 347.945 1077.56 346.938 1077.56 345.273L1077.56 331.539C1077.56 325.891 1074.44 322.422 1069.01 322.422C1065.21 322.422 1062.63 324.109 1061.3 326.922L1061.18 326.922L1061.18 324.977C1061.18 323.406 1060.17 322.398 1058.72 322.398C1057.24 322.398 1056.3 323.406 1056.3 324.953L1056.3 345.273C1056.3 346.938 1057.33 347.945 1058.83 347.945Z"/>
<path d="M1086.13 319.117C1087.77 319.117 1089.08 317.805 1089.08 316.211C1089.08 314.594 1087.77 313.328 1086.13 313.328C1084.51 313.328 1083.2 314.594 1083.2 316.211C1083.2 317.805 1084.51 319.117 1086.13 319.117ZM1086.13 347.945C1087.65 347.945 1088.66 346.891 1088.66 345.273L1088.66 325.094C1088.66 323.453 1087.65 322.398 1086.13 322.398C1084.61 322.398 1083.6 323.453 1083.6 325.094L1083.6 345.273C1083.6 346.891 1084.61 347.945 1086.13 347.945Z"/>
<path d="M1097.37 347.945C1098.85 347.945 1099.9 346.938 1099.9 345.273L1099.9 333.133C1099.9 329.312 1102.2 326.781 1105.76 326.781C1109.28 326.781 1111.01 328.82 1111.01 332.523L1111.01 345.273C1111.01 346.938 1112.07 347.945 1113.55 347.945C1115.05 347.945 1116.1 346.938 1116.1 345.273L1116.1 331.539C1116.1 325.891 1112.98 322.422 1107.55 322.422C1103.75 322.422 1101.17 324.109 1099.83 326.922L1099.72 326.922L1099.72 324.977C1099.72 323.406 1098.71 322.398 1097.26 322.398C1095.78 322.398 1094.84 323.406 1094.84 324.953L1094.84 345.273C1094.84 346.938 1095.87 347.945 1097.37 347.945Z"/>
<path d="M1132.31 356.781C1139.65 356.852 1144.12 352.914 1144.12 346.82L1144.12 325C1144.12 323.359 1143.05 322.398 1141.59 322.398C1140.14 322.398 1139.04 323.359 1139.04 325L1139.04 326.992L1138.94 326.992C1137.44 324.203 1134.73 322.445 1131.23 322.445C1124.86 322.445 1120.87 327.25 1120.87 334.961C1120.87 342.578 1124.9 347.43 1131.12 347.43C1134.63 347.43 1137.54 345.672 1138.92 343L1139.04 343L1139.04 346.914C1139.04 350.359 1136.53 352.703 1132.4 352.656C1129.99 352.609 1128.26 351.695 1126.24 349.586C1125.56 348.906 1125.07 348.648 1124.3 348.648C1123.01 348.648 1122.14 349.492 1122.14 350.664C1122.14 351.25 1122.28 351.766 1122.61 352.328C1124.3 355 1127.83 356.734 1132.31 356.781ZM1132.48 343.305C1128.58 343.305 1126.05 340.141 1126.05 334.984C1126.05 329.852 1128.58 326.617 1132.48 326.617C1136.44 326.617 1139.06 329.945 1139.06 335.008C1139.06 340.07 1136.44 343.305 1132.48 343.305Z"/>
<path d="M1168.04 347.922C1171.25 347.922 1174.39 346.188 1175.82 343.445L1175.94 343.445L1175.94 345.531C1175.98 347.031 1176.94 347.945 1178.35 347.945C1179.78 347.945 1180.79 346.984 1180.79 345.391L1180.79 330.508C1180.79 325.562 1176.97 322.398 1170.99 322.398C1166.56 322.398 1162.83 324.18 1161.55 326.969C1161.24 327.531 1161.1 328.094 1161.1 328.609C1161.1 329.875 1162.01 330.719 1163.28 330.719C1164.17 330.719 1164.83 330.391 1165.34 329.641C1166.75 327.391 1168.37 326.523 1170.8 326.523C1173.9 326.523 1175.75 328.164 1175.75 330.906L1175.75 332.805L1168.98 333.203C1163.14 333.531 1159.81 336.18 1159.81 340.492C1159.81 344.922 1163.21 347.922 1168.04 347.922ZM1169.42 343.914C1166.73 343.914 1164.92 342.508 1164.92 340.352C1164.92 338.242 1166.63 336.906 1169.65 336.695L1175.75 336.32L1175.75 338.266C1175.75 341.477 1172.96 343.914 1169.42 343.914Z"/>
<path d="M1189.22 356.242C1190.69 356.242 1191.75 355.211 1191.75 353.547L1191.75 343.445L1191.87 343.445C1193.27 346.188 1196.08 347.922 1199.62 347.922C1205.81 347.922 1209.91 342.977 1209.91 335.172C1209.91 327.367 1205.79 322.445 1199.53 322.445C1195.97 322.445 1193.13 324.25 1191.68 327.086L1191.58 327.086L1191.58 325C1191.58 323.383 1190.55 322.398 1189.12 322.398C1187.69 322.398 1186.69 323.383 1186.69 325L1186.69 353.547C1186.69 355.211 1187.72 356.242 1189.22 356.242ZM1198.19 343.633C1194.3 343.633 1191.73 340.305 1191.73 335.172C1191.73 330.086 1194.33 326.711 1198.19 326.711C1202.2 326.711 1204.71 330.016 1204.71 335.172C1204.71 340.352 1202.2 343.633 1198.19 343.633Z"/>
<path d="M1217.33 356.242C1218.81 356.242 1219.87 355.211 1219.87 353.547L1219.87 343.445L1219.98 343.445C1221.39 346.188 1224.2 347.922 1227.74 347.922C1233.93 347.922 1238.03 342.977 1238.03 335.172C1238.03 327.367 1233.9 322.445 1227.65 322.445C1224.08 322.445 1221.25 324.25 1219.8 327.086L1219.7 327.086L1219.7 325C1219.7 323.383 1218.67 322.398 1217.24 322.398C1215.81 322.398 1214.8 323.383 1214.8 325L1214.8 353.547C1214.8 355.211 1215.83 356.242 1217.33 356.242ZM1226.31 343.633C1222.42 343.633 1219.84 340.305 1219.84 335.172C1219.84 330.086 1222.44 326.711 1226.31 326.711C1230.32 326.711 1232.83 330.016 1232.83 335.172C1232.83 340.352 1230.32 343.633 1226.31 343.633Z"/>
<path d="M1245.64 347.945C1247.12 347.945 1248.17 346.938 1248.17 345.273L1248.17 315.906C1248.17 314.242 1247.12 313.234 1245.64 313.234C1244.16 313.234 1243.11 314.242 1243.11 315.906L1243.11 345.273C1243.11 346.938 1244.16 347.945 1245.64 347.945Z"/>
<path d="M1257.07 319.117C1258.71 319.117 1260.02 317.805 1260.02 316.211C1260.02 314.594 1258.71 313.328 1257.07 313.328C1255.45 313.328 1254.14 314.594 1254.14 316.211C1254.14 317.805 1255.45 319.117 1257.07 319.117ZM1257.07 347.945C1258.59 347.945 1259.6 346.891 1259.6 345.273L1259.6 325.094C1259.6 323.453 1258.59 322.398 1257.07 322.398C1255.55 322.398 1254.54 323.453 1254.54 325.094L1254.54 345.273C1254.54 346.891 1255.55 347.945 1257.07 347.945Z"/>
<path d="M1276.33 347.969C1280.9 347.969 1284.9 345.555 1286.19 342.156C1286.38 341.664 1286.48 341.242 1286.48 340.844C1286.48 339.578 1285.56 338.734 1284.32 338.734C1283.22 338.734 1282.68 339.156 1281.98 340.375C1280.78 342.508 1279.12 343.727 1276.37 343.727C1272.46 343.727 1269.83 340.539 1269.83 335.172C1269.83 329.922 1272.41 326.617 1276.37 326.617C1278.98 326.617 1280.71 327.742 1281.98 330.086C1282.58 331.211 1283.19 331.633 1284.27 331.633C1285.51 331.633 1286.43 330.836 1286.43 329.547C1286.43 329.195 1286.33 328.773 1286.19 328.375C1285.12 324.93 1281.04 322.398 1276.28 322.398C1269.25 322.398 1264.68 327.414 1264.68 335.219C1264.68 343.07 1269.27 347.969 1276.33 347.969Z"/>
<path d="M1298.8 347.922C1302.01 347.922 1305.15 346.188 1306.58 343.445L1306.69 343.445L1306.69 345.531C1306.74 347.031 1307.7 347.945 1309.11 347.945C1310.54 347.945 1311.55 346.984 1311.55 345.391L1311.55 330.508C1311.55 325.562 1307.73 322.398 1301.75 322.398C1297.32 322.398 1293.59 324.18 1292.3 326.969C1292 327.531 1291.86 328.094 1291.86 328.609C1291.86 329.875 1292.77 330.719 1294.04 330.719C1294.93 330.719 1295.58 330.391 1296.1 329.641C1297.51 327.391 1299.12 326.523 1301.56 326.523C1304.65 326.523 1306.51 328.164 1306.51 330.906L1306.51 332.805L1299.73 333.203C1293.9 333.531 1290.57 336.18 1290.57 340.492C1290.57 344.922 1293.97 347.922 1298.8 347.922ZM1300.18 343.914C1297.48 343.914 1295.68 342.508 1295.68 340.352C1295.68 338.242 1297.39 336.906 1300.41 336.695L1306.51 336.32L1306.51 338.266C1306.51 341.477 1303.72 343.914 1300.18 343.914Z"/>
<path d="M1318.92 341.594C1318.92 345.672 1321.03 347.711 1325.18 347.711L1325.44 347.711C1327.92 347.711 1329.09 346.938 1329.09 345.414C1329.09 344.219 1328.37 343.633 1326.91 343.492L1326.51 343.469C1324.69 343.328 1324.01 342.438 1324.01 340.469L1324.01 326.852L1326.89 326.852C1328.2 326.852 1329 326.102 1329 324.859C1329 323.617 1328.2 322.844 1326.89 322.844L1324.01 322.844L1324.01 319.188C1324.01 317.57 1323 316.492 1321.48 316.492C1319.93 316.492 1318.92 317.57 1318.92 319.188L1318.92 322.844L1317.14 322.844C1315.83 322.844 1315.03 323.594 1315.03 324.859C1315.03 326.102 1315.83 326.852 1317.14 326.852L1318.92 326.852L1318.92 341.594Z"/>
<path d="M1336.54 319.117C1338.18 319.117 1339.49 317.805 1339.49 316.211C1339.49 314.594 1338.18 313.328 1336.54 313.328C1334.92 313.328 1333.61 314.594 1333.61 316.211C1333.61 317.805 1334.92 319.117 1336.54 319.117ZM1336.54 347.945C1338.06 347.945 1339.07 346.891 1339.07 345.273L1339.07 325.094C1339.07 323.453 1338.06 322.398 1336.54 322.398C1335.01 322.398 1334.01 323.453 1334.01 325.094L1334.01 345.273C1334.01 346.891 1335.01 347.945 1336.54 347.945Z"/>
<path d="M1355.84 347.969C1362.9 347.969 1367.54 343.117 1367.54 335.172C1367.54 327.25 1362.87 322.398 1355.84 322.398C1348.81 322.398 1344.15 327.25 1344.15 335.172C1344.15 343.117 1348.79 347.969 1355.84 347.969ZM1355.84 343.797C1351.88 343.797 1349.3 340.656 1349.3 335.172C1349.3 329.711 1351.88 326.57 1355.84 326.57C1359.8 326.57 1362.38 329.711 1362.38 335.172C1362.38 340.656 1359.83 343.797 1355.84 343.797Z"/>
<path d="M1374.98 347.945C1376.46 347.945 1377.51 346.938 1377.51 345.273L1377.51 333.133C1377.51 329.312 1379.81 326.781 1383.37 326.781C1386.89 326.781 1388.62 328.82 1388.62 332.523L1388.62 345.273C1388.62 346.938 1389.68 347.945 1391.15 347.945C1392.65 347.945 1393.71 346.938 1393.71 345.273L1393.71 331.539C1393.71 325.891 1390.59 322.422 1385.15 322.422C1381.36 322.422 1378.78 324.109 1377.44 326.922L1377.33 326.922L1377.33 324.977C1377.33 323.406 1376.32 322.398 1374.87 322.398C1373.39 322.398 1372.45 323.406 1372.45 324.953L1372.45 345.273C1372.45 346.938 1373.48 347.945 1374.98 347.945Z"/>
</g>
<g opacity="1">
<g fill="#ffffff" filter="url(#Filter)" stroke="none">
<path d="M557.939 265.5L609.428 265.5C614.628 265.5 618.07 262.424 618.07 257.517C618.07 252.609 614.628 249.533 609.428 249.533L567.387 249.533L567.387 219.357L607.231 219.357C612.138 219.357 615.36 216.428 615.36 211.813C615.36 207.199 612.065 204.343 607.231 204.343L567.387 204.343L567.387 175.778L609.428 175.778C614.628 175.778 618.07 172.702 618.07 167.795C618.07 162.888 614.628 159.812 609.428 159.812L557.939 159.812C552.079 159.812 548.49 163.474 548.49 169.626L548.49 255.686C548.49 261.838 552.079 265.5 557.939 265.5Z"/>
<path d="M678.887 267.258C685.625 267.258 691.851 266.306 697.49 264.255L704.888 274.655C706.792 277.512 708.843 278.684 711.919 278.684C716.533 278.684 719.829 275.607 719.829 271.286C719.829 269.309 719.317 267.844 717.998 265.866L711.26 256.345C722.686 247.263 728.985 231.955 728.985 212.692C728.985 179.147 709.649 158.054 678.887 158.054C648.052 158.054 628.716 179.147 628.716 212.692C628.716 246.457 648.052 267.258 678.887 267.258ZM678.887 251.291C659.99 251.291 648.052 236.276 648.052 212.692C648.052 189.108 659.99 174.021 678.887 174.021C697.71 174.021 709.722 189.108 709.722 212.692C709.722 224.851 706.133 234.519 699.907 240.817L693.902 232.541C692.144 230.124 690.313 229.172 687.529 229.172C683.208 229.172 680.059 232.175 680.059 236.423C680.059 238.107 680.571 239.719 681.89 241.696L687.749 249.973C685.039 250.778 682.036 251.291 678.887 251.291Z"/>
<path d="M751.495 266.745C756.842 266.745 760.065 263.449 760.065 257.883L760.065 190.5L760.577 190.5L788.629 258.542C790.387 262.863 793.243 264.841 797.565 264.841C801.959 264.841 804.669 262.863 806.5 258.469L834.552 190.5L835.065 190.5L835.065 257.883C835.065 263.449 838.214 266.745 843.561 266.745C848.907 266.745 852.057 263.449 852.057 257.883L852.057 170.578C852.057 163.034 847.589 158.566 840.045 158.566C833.453 158.566 829.645 161.423 826.861 168.381L797.858 239.572L797.272 239.572L768.194 168.381C765.411 161.35 761.676 158.566 755.157 158.566C747.613 158.566 742.999 163.107 742.999 170.578L742.999 257.883C742.999 263.449 746.149 266.745 751.495 266.745Z"/>
<path d="M902.253 267.038C925.031 267.038 939.826 251.877 939.826 226.682C939.826 201.56 924.885 186.252 902.253 186.252C879.621 186.252 864.68 201.633 864.68 226.682C864.68 251.877 879.475 267.038 902.253 267.038ZM902.253 252.609C890.681 252.609 883.21 243.234 883.21 226.682C883.21 210.202 890.754 200.754 902.253 200.754C913.825 200.754 921.296 210.202 921.296 226.682C921.296 243.234 913.825 252.609 902.253 252.609Z"/>
<path d="M959.627 266.965C964.974 266.965 968.782 263.522 968.782 257.37L968.782 220.529C968.782 209.396 975.447 201.853 985.921 201.853C996.321 201.853 1001.45 208.005 1001.45 218.991L1001.45 257.37C1001.45 263.522 1005.26 266.965 1010.6 266.965C1015.95 266.965 1019.69 263.522 1019.69 257.37L1019.69 215.329C1019.69 197.385 1009.94 186.398 992.806 186.398C980.867 186.398 972.811 191.745 968.636 200.974L968.27 200.974L968.27 195.554C968.27 189.914 964.608 186.325 959.261 186.325C953.841 186.325 950.545 189.914 950.545 195.554L950.545 257.37C950.545 263.522 954.28 266.965 959.627 266.965Z"/>
<path d="M1042.78 176.95C1048.5 176.95 1052.96 172.556 1052.96 167.062C1052.96 161.496 1048.5 157.175 1042.78 157.175C1037.14 157.175 1032.67 161.496 1032.67 167.062C1032.67 172.556 1037.14 176.95 1042.78 176.95ZM1042.78 266.965C1048.35 266.965 1051.94 263.303 1051.94 257.37L1051.94 195.993C1051.94 190.061 1048.35 186.325 1042.78 186.325C1037.22 186.325 1033.7 190.061 1033.7 195.92L1033.7 257.37C1033.7 263.303 1037.22 266.965 1042.78 266.965Z"/>
<path d="M1071.3 246.311C1071.3 259.567 1078.18 266.306 1091.73 266.306L1092.47 266.306C1100.82 266.306 1105.5 263.449 1105.5 258.103C1105.5 253.854 1103.01 251.804 1098.18 251.364L1096.86 251.218C1091.59 250.778 1089.54 248.215 1089.54 242.355L1089.54 201.926L1097.96 201.926C1102.5 201.926 1105.28 199.216 1105.28 194.821C1105.28 190.5 1102.5 187.863 1097.96 187.863L1089.54 187.863L1089.54 177.536C1089.54 171.677 1086.02 168.015 1080.45 168.015C1074.81 168.015 1071.3 171.677 1071.3 177.536L1071.3 187.863L1066.39 187.863C1061.85 187.863 1059.07 190.5 1059.07 194.821C1059.07 199.216 1061.85 201.926 1066.39 201.926L1071.3 201.926L1071.3 246.311Z"/>
<path d="M1148.45 267.038C1171.23 267.038 1186.02 251.877 1186.02 226.682C1186.02 201.56 1171.08 186.252 1148.45 186.252C1125.82 186.252 1110.88 201.633 1110.88 226.682C1110.88 251.877 1125.67 267.038 1148.45 267.038ZM1148.45 252.609C1136.88 252.609 1129.41 243.234 1129.41 226.682C1129.41 210.202 1136.95 200.754 1148.45 200.754C1160.02 200.754 1167.49 210.202 1167.49 226.682C1167.49 243.234 1160.02 252.609 1148.45 252.609Z"/>
<path d="M1205.82 266.965C1211.32 266.965 1214.98 263.376 1214.98 257.37L1214.98 220.017C1214.98 210.568 1218.93 204.05 1229.33 203.977C1232.92 203.903 1235.63 203.098 1237.39 201.56C1239.22 200.095 1240.1 197.971 1240.1 195.114C1240.1 192.111 1239.22 189.914 1237.54 188.522C1236.14 187.277 1233.95 186.545 1231.09 186.545C1223.33 186.545 1216.59 192.404 1214.46 201.486L1214.1 201.486L1214.1 195.554C1214.1 189.841 1210.51 186.325 1205.46 186.325C1200.26 186.325 1196.74 189.841 1196.74 195.554L1196.74 257.37C1196.74 263.376 1200.33 266.965 1205.82 266.965Z"/>
</g>
<g fill="#ffffff" filter="url(#Filter_2)" stroke="none">
<path d="M1312.93 267.038C1320.69 267.038 1325.16 263.669 1327.87 256.125L1348.31 200.9C1348.97 199.069 1349.48 196.872 1349.48 194.895C1349.48 189.475 1345.01 185.373 1339.08 185.373C1334.1 185.373 1330.51 188.083 1329.04 193.723L1313.15 246.604L1312.71 246.604L1296.82 193.942C1295.21 188.156 1291.76 185.373 1286.56 185.373C1280.49 185.373 1275.87 189.182 1275.87 194.968C1275.87 197.165 1276.38 199.436 1277.04 201.34L1297.48 256.125C1300.33 263.742 1304.73 267.038 1312.93 267.038Z"/>
<path d="M1369.91 265.5L1428.43 265.5C1434.15 265.5 1437.59 261.911 1437.59 256.711C1437.59 251.364 1434.15 247.922 1428.43 247.922L1388.59 247.922L1388.59 247.482L1411.44 225.51C1428.73 209.177 1435.03 201.12 1435.03 188.229C1435.03 170.065 1419.94 157.468 1397.53 157.468C1377.53 157.468 1364.27 168.381 1360.69 180.1C1360.17 181.638 1359.88 183.176 1359.88 184.86C1359.88 190.354 1363.4 193.869 1369.33 193.869C1374.09 193.869 1376.65 191.818 1379.14 187.424C1382.95 178.928 1388.81 174.68 1397.31 174.68C1406.75 174.68 1413.49 180.905 1413.49 189.621C1413.49 197.238 1410.12 202.365 1397.09 214.89L1365.59 244.992C1361.12 249.094 1359.51 251.877 1359.51 256.052C1359.51 261.618 1362.96 265.5 1369.91 265.5Z"/>
</g>
</g>
<g opacity="1">
<path d="M305.531 243.812C303.898 243.765 302.235 243.895 300.562 244.188C287.182 246.525 278.256 259.245 280.594 272.625L288.469 317.75C290.928 331.824 304.83 340.85 318.688 337.375L359.594 327.125L363.625 361.406C365.344 375.982 379.365 385.813 393.656 382.469L415.812 377.281L432.594 418.094C437.763 430.655 452.158 436.638 464.719 431.469C477.28 426.3 483.263 411.936 478.094 399.375L453.344 339.188C448.752 328.029 436.749 321.876 425 324.625L409.25 328.312L405.156 293.562C403.419 278.832 389.137 268.986 374.75 272.594L332.344 283.219L329.031 264.156C326.986 252.448 316.966 244.143 305.531 243.812Z" fill="#ffffff" fill-rule="nonzero" opacity="1" stroke="#000000" stroke-linecap="round" stroke-linejoin="round" stroke-opacity="0.2" stroke-width="4"/>
<g opacity="1">
<path d="M304.674 63.0204C201.409 63.0204 117.694 146.735 117.694 250C117.694 353.265 201.409 436.98 304.674 436.98C347.018 436.98 386.059 422.887 417.405 399.158L411.685 385.288L395.223 389.149C376.944 393.427 359.011 380.839 356.812 362.195L356.133 356.439C340.555 363.987 323.145 368.344 304.674 368.344C239.316 368.344 186.33 315.358 186.33 250C186.33 184.642 239.316 131.656 304.674 131.656C370.032 131.656 423.018 184.642 423.018 250C423.018 267.235 419.257 283.562 412.633 298.331L415.171 319.851L423.429 317.921C438.456 314.404 453.804 322.309 459.677 336.581L464.199 347.556C481.609 319.152 491.654 285.756 491.654 250C491.654 146.735 407.939 63.0204 304.674 63.0204Z" fill="#ffffff" fill-rule="nonzero" opacity="1" stroke="#000000" stroke-linecap="round" stroke-linejoin="round" stroke-opacity="0.2" stroke-width="4"/>
</g>
</g>
</g>
</svg>
