<?xml version="1.0" encoding="UTF-8" standalone="no"?>
<!DOCTYPE svg PUBLIC "-//W3C//DTD SVG 1.1//EN" "http://www.w3.org/Graphics/SVG/1.1/DTD/svg11.dtd">
<!-- Created with Vectornator (http://vectornator.io/) -->
<svg height="1280.0pt" stroke-miterlimit="10" style="fill-rule:nonzero;clip-rule:evenodd;stroke-linecap:round;stroke-linejoin:round;" version="1.1" viewBox="0 0 1280 1280" width="1280.0pt" xml:space="preserve" xmlns="http://www.w3.org/2000/svg" xmlns:xlink="http://www.w3.org/1999/xlink">
<defs>
<linearGradient gradientTransform="matrix(1 0 0 1 0 0)" gradientUnits="userSpaceOnUse" id="LinearGradient" x1="3.24185e-14" x2="1280" y1="640" y2="640">
<stop offset="0" stop-color="#3b88e6"/>
<stop offset="0.537206" stop-color="#415ec1"/>
<stop offset="1" stop-color="#463aa2"/>
</linearGradient>
<linearGradient gradientTransform="matrix(1 0 0 1 0 0)" gradientUnits="userSpaceOnUse" id="LinearGradient_2" x1="1872.68" x2="1872.68" y1="1182.67" y2="1182.67">
<stop offset="0" stop-color="#3b88e6"/>
<stop offset="0.537206" stop-color="#415ec1"/>
<stop offset="1" stop-color="#463aa2"/>
</linearGradient>
<linearGradient gradientTransform="matrix(1 0 0 1 2.84217e-14 2.84217e-14)" gradientUnits="userSpaceOnUse" id="LinearGradient_3" x1="310.562" x2="964.375" y1="642.531" y2="642.531">
<stop offset="0" stop-color="#047aff"/>
<stop offset="1" stop-color="#463aa2"/>
</linearGradient>
</defs>
<clipPath id="ArtboardFrame">
<rect height="1280" width="1280" x="0" y="0"/>
</clipPath>
<g clip-path="url(#ArtboardFrame)" id="レイヤー-1">
<path d="M3.24185e-14 5.57332e-14L1280 5.57332e-14L1280 1280L3.24185e-14 1280L3.24185e-14 5.57332e-14Z" fill="url(#LinearGradient)" fill-rule="nonzero" opacity="1" stroke="none"/>
<path d="M1872.68 1182.49L1872.68 1182.49L1872.68 1182.84L1872.68 1182.84L1872.68 1182.49Z" fill="url(#LinearGradient_2)" fill-rule="nonzero" opacity="1" stroke="none"/>
</g>
<g id="レイヤー-3">
<g opacity="1">
<path d="M640.327 685.592L659.862 797.395L828.469 755.112L846.599 908.884L952.011 884.214L1013.36 1033.3" fill="none" opacity="1" stroke="#ffffff" stroke-linecap="round" stroke-linejoin="round" stroke-width="121.884"/>
<g opacity="1">
<path d="M640 176.691C384.125 176.691 176.691 384.125 176.691 640C176.691 895.875 384.125 1103.31 640 1103.31C744.923 1103.31 841.662 1068.39 919.332 1009.59L905.159 975.225L864.369 984.791C819.076 995.391 774.638 964.2 769.192 918.003L767.509 903.742C728.908 922.444 685.77 933.239 640 933.239C478.052 933.239 346.761 801.948 346.761 640C346.761 478.052 478.052 346.761 640 346.761C801.948 346.761 933.239 478.052 933.239 640C933.239 682.706 923.921 723.161 907.507 759.758L913.796 813.082L934.257 808.299C971.493 799.585 1009.52 819.173 1024.08 854.537L1035.28 881.73C1078.42 811.348 1103.31 728.598 1103.31 640C1103.31 384.125 895.875 176.691 640 176.691Z" fill="#ffffff" fill-rule="nonzero" opacity="1" stroke="none"/>
</g>
</g>
</g>
<g id="レイヤー-3-コピー" visibility="hidden">
<path d="M637.469 315.625C456.926 315.625 310.563 461.988 310.562 642.531C310.562 823.074 456.926 969.437 637.469 969.437C711.501 969.437 779.759 944.798 834.562 903.313L824.562 879.062L795.781 885.812C763.823 893.291 732.468 871.283 728.625 838.688L727.438 828.625C700.201 841.821 669.763 849.438 637.469 849.438C523.2 849.438 430.563 756.8 430.562 642.531C430.562 528.263 523.2 435.625 637.469 435.625C751.737 435.625 844.375 528.263 844.375 642.531C844.375 672.664 837.8 701.209 826.219 727.031L830.656 764.656L845.094 761.281C871.367 755.133 898.2 768.954 908.469 793.906L916.375 813.094C946.814 763.433 964.375 705.045 964.375 642.531C964.375 461.988 818.012 315.625 637.469 315.625ZM639 631.719C636.144 631.636 633.237 631.833 630.312 632.344C606.919 636.431 591.256 658.7 595.344 682.094L609.125 761C613.424 785.606 637.709 801.357 661.938 795.281L733.469 777.344L740.531 837.281C743.536 862.765 768.046 879.972 793.031 874.125L831.781 865.063L861.156 936.406C870.194 958.368 895.32 968.85 917.281 959.812C939.243 950.775 949.725 925.649 940.688 903.688L897.375 798.469C889.347 778.96 868.353 768.162 847.812 772.969L820.312 779.406L813.156 718.719C810.12 692.964 785.154 675.723 760 682.031L685.875 700.625L680.062 667.312C676.486 646.843 658.992 632.296 639 631.719Z" fill="url(#LinearGradient_3)" fill-rule="nonzero" opacity="1" stroke="none"/>
</g>
</svg>
